<svg width="404" height="129" viewBox="0 0 404 129" fill="none" xmlns="http://www.w3.org/2000/svg">
<path d="M0 110.767L7.49083 104.791C14.9536 98.7027 15.6306 74.0362 30.5 63.4592C45.4536 52.9945 48 46.1719 66.5 37.5C82.5 30.0001 105.5 -1.71913e-10 118.5 0C133.454 7.575 146.5 25 155.5 31.5C173.5 39 212.5 87 228 84.5C239.5 70.5 267.5 62 281 57C297 47.0408 315.131 33.8917 330 28C344.954 22.1083 359.131 57.9008 374 59.5C388.954 60.9869 393 81 396.425 88.3221L404 110.767V128.722H396.509C389.046 128.722 373.981 128.722 359.111 128.722C344.157 128.722 329.092 128.722 314.222 128.722C299.269 128.722 284.203 128.722 269.333 128.722C254.38 128.722 239.314 128.722 224.444 128.722C209.491 128.722 194.425 128.722 179.556 128.722C164.602 128.722 149.536 128.722 134.667 128.722C119.713 128.722 104.647 128.722 89.7778 128.722C74.8242 128.722 59.7583 128.722 44.8889 128.722C29.9353 128.722 14.8694 128.722 7.575 128.722H0V110.767Z" fill="#024382"/>
</svg>
