<svg width="404" height="100" viewBox="0 0 404 100" fill="none" xmlns="http://www.w3.org/2000/svg">
<path d="M0 72.305L7.49083 73.7919C14.9536 75.3912 25.1306 81.1988 40 72.305C54.9536 63.2428 74.9083 39.4792 89.7778 28.9019C104.731 18.437 104.631 0 119.5 0C134.454 0 153.131 36.0199 168 48C182.954 59.8677 203.631 68.6082 218.5 74.5C233.454 80.3918 254.464 66.4132 269.333 55.8359C284.287 45.371 299.353 36.393 314.222 43.884C329.176 51.2628 344.242 75.3912 359.111 81.283C374.065 87.1748 389.5 77.5 393.5 69L404 72.305V99.239H396.509C389.046 99.239 373.981 99.239 359.111 99.239C344.157 99.239 329.092 99.239 314.222 99.239C299.269 99.239 284.203 99.239 269.333 99.239C254.38 99.239 239.314 99.239 224.444 99.239C209.491 99.239 194.425 99.239 179.556 99.239C164.602 99.239 149.536 99.239 134.667 99.239C119.713 99.239 104.647 99.239 89.7778 99.239C74.8242 99.239 59.7583 99.239 44.8889 99.239C29.9353 99.239 14.8694 99.239 7.575 99.239H0V72.305Z" fill="#052C51"/>
</svg>
