<svg width="42" height="42" viewBox="0 0 42 42" fill="none" xmlns="http://www.w3.org/2000/svg">
<path d="M13.9131 32.3513C13.8879 32.3513 13.8604 32.3467 13.833 32.3399C11.0776 31.5 8.09337 28.4883 7.44573 25.8954C7.40909 25.749 7.49834 25.6025 7.6425 25.5658C7.78898 25.5292 7.93545 25.6185 7.9721 25.7627C8.56939 28.1541 11.4392 31.04 13.9909 31.8204C14.1351 31.8638 14.2151 32.0149 14.1717 32.159C14.1373 32.2757 14.0298 32.3513 13.9131 32.3513Z" fill="#975500"/>
<path d="M15.2265 35.7678C15.2059 35.7678 15.1854 35.7656 15.1647 35.7609C12.8854 35.23 10.2353 33.5274 7.89642 31.0878C5.70859 28.8085 4.292 26.3826 4.20046 24.7578C4.19131 24.609 4.30573 24.4786 4.45677 24.4717C4.60553 24.4626 4.73597 24.577 4.74284 24.728C4.82523 26.2064 6.21663 28.5544 8.28776 30.7125C10.5557 33.0788 13.1074 34.7243 15.2883 35.2323C15.4348 35.2666 15.5264 35.4131 15.492 35.5595C15.4623 35.6831 15.3501 35.7678 15.2265 35.7678Z" fill="#975500"/>
<path d="M26.9093 11.9879C26.788 11.9879 26.6781 11.9078 26.6461 11.7865C26.2639 10.3356 24.527 8.25305 22.9456 7.8457C22.8014 7.80906 22.7121 7.66033 22.7511 7.51385C22.79 7.36738 22.9364 7.28044 23.0829 7.31934C24.8634 7.77934 26.7445 10.0243 27.1725 11.6492C27.2114 11.7934 27.1244 11.9421 26.978 11.981C26.9551 11.9856 26.9322 11.9879 26.9093 11.9879Z" fill="#975500"/>
<path d="M30.3354 12.4708C30.2141 12.4708 30.1042 12.3884 30.0722 12.2671C29.0538 8.25764 25.2457 5.12924 23.0716 4.7402C22.9228 4.71274 22.8267 4.57314 22.8519 4.42438C22.8794 4.27563 23.019 4.17951 23.1677 4.20468C25.5363 4.63035 29.5092 7.85486 30.5985 12.1321C30.6351 12.2786 30.5482 12.425 30.4017 12.4617C30.3788 12.4685 30.3583 12.4708 30.3354 12.4708Z" fill="#975500"/>
<path d="M23.5726 19.5952C24.0097 20.0781 24.4033 20.712 24.2362 20.8791C24.0692 21.0461 23.5566 20.744 23.1652 20.3504C22.7739 19.9591 21.8379 24.1242 21.7464 24.3347C21.6777 24.4926 20.5884 25.7421 20.0185 26.9299C19.8286 27.3258 19.856 28.5204 19.7851 28.5914C19.499 28.8774 19.1352 28.8477 18.3502 28.1543C17.5652 27.4608 17.1579 31.5916 18.0939 32.2439C19.6936 33.3606 22.8929 37.7981 27.1198 37.7981C32.0103 37.7981 36.5393 32.697 36.5393 28.9529C36.5393 25.209 35.4408 23.79 35.5141 20.6525C35.5735 17.9956 37.5073 16.7277 37.5073 15.4004C37.5073 14.2835 35.8482 14.0112 35.3035 14.0112C34.3377 14.0112 31.8616 15.2493 31.8616 18.5082C31.8616 19.776 31.5 20.9225 30.2024 20.9225C28.9048 20.9225 27.4562 19.1421 26.5797 17.753" fill="url(#paint0_linear_505_600)"/>
<path d="M37.5053 15.4002C37.5053 14.7938 37.0133 14.4367 36.4777 14.2354C37.1208 16.366 33.8597 16.4575 33.8597 23.7167C33.8597 30.9759 29.6328 33.0882 27.882 33.452C26.1313 33.8137 23.0464 33.9189 20.6984 31.0377C19.9775 30.152 19.0004 29.1908 17.9133 28.2823C17.4533 29.049 17.3549 31.7288 18.0941 32.2437C19.6938 33.3605 22.8931 37.7979 27.12 37.7979C32.0105 37.7979 36.5395 32.6968 36.5395 28.9528C36.5395 25.2088 35.4411 23.7899 35.5143 20.6524C35.5738 17.9954 37.5053 16.7276 37.5053 15.4002Z" fill="url(#paint1_linear_505_600)"/>
<path d="M18.3504 28.1541C17.5655 27.4606 15.7095 25.4833 14.5012 24.5153C13.2929 23.5496 12.2378 23.561 11.5124 24.6274C10.7869 25.6939 12.9015 27.5659 13.3844 28.0488C14.1236 28.788 17.1581 31.5914 18.0941 32.2459" fill="url(#paint2_linear_505_600)"/>
<path d="M21.7465 24.334C21.6549 24.5446 21.0393 24.691 19.8149 23.3591C18.879 22.3407 16.373 19.4137 14.8946 18.0863C13.4162 16.759 12.2674 16.2144 11.3016 16.9101C10.3359 17.6058 10.8852 19.0521 11.9653 20.2605C13.3018 21.7548 14.8397 23.279 16.3112 24.7437C17.4624 25.8879 20.069 28.3069 19.7829 28.593" fill="url(#paint3_linear_505_600)"/>
<path d="M16.3135 24.7416C17.4005 25.8218 19.7806 28.0348 19.8058 28.5222C20.1491 27.9867 19.522 26.3939 18.8583 25.8355C15.0228 22.6064 11.3177 17.4 10.8462 17.5557C10.6448 18.3132 11.1552 19.3522 11.9653 20.2607C13.3018 21.7528 14.8397 23.2793 16.3135 24.7416Z" fill="url(#paint4_linear_505_600)"/>
<path d="M26.5778 17.7547C25.7013 16.3655 22.1083 11.8984 21.234 10.6305C20.3576 9.36266 19.1812 9.36266 18.3665 9.93711C17.5519 10.5115 17.3092 11.6581 19.1446 14.0953C20.3026 15.6332 21.2638 17.0475 23.5752 19.5969L26.2619 19.4093L26.5778 17.7547Z" fill="url(#paint5_linear_505_600)"/>
<path d="M23.1653 20.3498C22.7739 19.9584 19.3023 15.8437 18.5173 14.9603C17.0458 13.308 15.1806 9.76765 12.9562 11.3444C11.7868 12.1729 12.4207 13.3744 12.7525 13.8572C13.0844 14.3401 17.4005 19.3222 17.8239 19.7433C18.2473 20.1667 21.838 24.1213 21.7487 24.3318" fill="url(#paint6_linear_505_600)"/>
<path d="M23.5729 19.5949C23.994 20.0595 24.3716 20.6613 24.2526 20.8559C25.6532 19.7299 22.6919 16.4208 21.0144 14.4343C19.7168 12.8964 19.3621 10.9398 18.4329 9.8916C18.41 9.90536 18.3894 9.92137 18.3665 9.93507C17.5519 10.5095 17.3092 11.6561 19.1446 14.0933C20.3003 15.6312 21.2638 17.0478 23.5729 19.5949Z" fill="url(#paint7_linear_505_600)"/>
<path d="M17.8218 19.7459C18.2451 20.1693 21.8358 24.1239 21.7466 24.3344C22.8565 22.84 18.5541 18.4483 16.4715 16.2285C14.6659 14.3038 14.3569 12.6195 12.5948 11.6743C11.9403 12.4662 12.4597 13.4365 12.7504 13.8598C13.0822 14.3427 17.4007 19.3248 17.8218 19.7459Z" fill="url(#paint8_linear_505_600)"/>
<path d="M21.6665 24.4243C21.5407 24.5021 21.2821 24.5089 20.8816 24.2778C21.1791 24.5181 21.4537 24.6096 21.6665 24.4243Z" fill="url(#paint9_linear_505_600)"/>
<path d="M35.5577 14.4644C36.48 14.2996 36.6425 14.4049 36.4777 14.2355C36.0291 14.0685 35.5485 14.0112 35.3014 14.0112C34.3356 14.0112 31.8594 15.2493 31.8594 18.5082C31.8594 19.776 31.4979 20.9225 30.198 20.9225C29.6854 20.9225 29.1521 20.6457 28.6372 20.2246C30.9166 22.7488 32.7039 20.371 32.9762 18.7416C33.2486 17.1122 32.8526 14.9495 35.5577 14.4644Z" fill="url(#paint10_radial_505_600)"/>
<path d="M18.0872 10.1821C17.5243 10.8206 17.5426 11.9649 19.1423 14.0932C20.3002 15.6311 21.2614 17.0454 23.5728 19.5948C24.0099 20.0777 24.4035 20.7116 24.2365 20.8787C24.6233 18.2377 20.8632 15.6402 19.6412 13.6492C18.6731 12.0702 18.4809 11.1387 18.0872 10.1821Z" fill="url(#paint11_linear_505_600)"/>
<path d="M17.8216 19.7464C18.245 20.1697 21.8357 24.1243 21.7464 24.3348C22.5382 23.7695 21.9982 22.8885 20.7738 21.6641C18.2633 19.1536 14.7688 15.7803 13.3636 13.0021C13.2309 12.7389 12.9837 12.5444 12.6931 12.5078C11.9356 12.4094 12.4986 13.4918 12.7526 13.8603C13.0821 14.3432 17.4005 19.3253 17.8216 19.7464Z" fill="url(#paint12_linear_505_600)"/>
<path d="M11.9655 20.2604C13.302 21.7548 14.8399 23.2789 16.3114 24.7436C17.4625 25.8878 20.0691 28.3068 19.7831 28.5929C21.3988 27.2335 13.8947 22.32 10.8442 17.5576C10.645 18.3106 11.1554 19.3519 11.9655 20.2604Z" fill="url(#paint13_linear_505_600)"/>
<path d="M19.4537 28.8634C19.607 28.8039 19.6871 28.733 19.7123 28.6552C19.4354 28.868 19.0715 28.7925 18.3506 28.154C17.5656 27.4605 15.7097 25.4833 14.5013 24.5152C13.9704 24.0919 13.4692 23.8562 13.0115 23.8149C13.666 24.2246 13.3616 24.3711 14.8172 25.4879C15.5998 26.0875 18.4559 29.2547 19.4537 28.8634Z" fill="url(#paint14_linear_505_600)"/>
<path d="M17.5518 21.618C18.6113 22.9087 20.6802 25.0393 21.6093 24.4512C21.353 24.5381 20.7694 24.3962 19.8174 23.3596C18.8814 22.3412 16.3755 19.4141 14.8971 18.0868C13.7002 17.0112 12.7184 16.4505 11.8762 16.645C14.3272 17.4506 16.5471 20.3982 17.5518 21.618Z" fill="url(#paint15_linear_505_600)"/>
<path d="M18.6982 16.0635C20.3894 17.9035 22.8999 21.5537 24.1723 20.9152C23.964 20.9793 23.5155 20.7024 23.1654 20.35C22.774 19.9586 19.3024 15.8439 18.5174 14.9605C17.4967 13.8162 16.2906 11.7657 14.9038 11.1387C16.3021 12.2417 17.3274 14.5737 18.6982 16.0635Z" fill="url(#paint16_linear_505_600)"/>
<path d="M28.6373 20.2268C28.6396 20.2268 28.6396 20.2268 28.6373 20.2268C27.8477 19.5814 27.1063 18.5951 26.5753 17.7552C25.7011 16.366 22.1082 11.8988 21.2339 10.631C20.9662 10.2442 20.6732 9.97649 20.3689 9.80713C20.7762 10.393 21.0073 11.2283 21.9296 12.2627C23.408 13.9219 25.3418 16.9107 26.0055 17.9382C26.6668 18.9612 27.7379 21.1261 28.6373 20.2268Z" fill="url(#paint17_linear_505_600)"/>
<path d="M33.4797 34.9596C32.9305 33.6231 32.1272 32.8084 30.967 33.5728C27.8019 35.6577 24.1609 34.9528 19.5953 31.2637C15.5241 27.9705 13.4186 25.6179 11.4368 24.7666C10.9608 25.849 12.9197 27.5861 13.382 28.0483C14.1212 28.7875 17.1558 31.591 18.0918 32.2455C19.6915 33.3623 22.8908 37.7997 27.1177 37.7997C29.4817 37.7974 31.7565 36.6097 33.4797 34.9596Z" fill="url(#paint18_linear_505_600)"/>
<path d="M35.5119 20.6519C35.5713 17.995 37.5052 16.7271 37.5052 15.3998C37.5052 15.0084 37.3015 14.7224 37.0131 14.5142C37.3655 15.5486 36.5257 16.4663 35.2716 18.027C33.9122 19.7182 33.6124 22.3432 34.5461 24.9704C35.4821 27.5976 34.3035 31.2203 32.4018 32.3669C30.5 33.5134 27.9735 38.555 20.7395 32.8589C20.7372 32.8566 20.7372 32.8566 20.7349 32.8543C20.2932 32.4447 19.8561 32.0808 19.4144 31.8062C16.3593 29.9136 14.6177 28.2109 13.3018 26.7806C13.0432 26.4991 12.3475 25.4212 11.519 25.7759C11.9333 26.7142 13.0478 27.7143 13.3819 28.0485C14.1211 28.7877 17.1557 31.591 18.0917 32.2456C18.213 32.3302 18.3457 32.4355 18.4853 32.5568C18.5219 32.5889 18.5585 32.6209 18.5951 32.6529C18.6043 32.6621 18.6157 32.6712 18.6249 32.6781C18.6478 32.6987 18.673 32.7216 18.6958 32.7422C18.7004 32.7468 18.7073 32.7513 18.7119 32.7582C19.6616 33.621 20.9683 35.049 22.5703 36.1635C22.5703 36.1635 22.5726 36.1635 22.5726 36.1658C22.7122 36.2642 22.8564 36.3604 23.0005 36.4519C23.0028 36.4542 23.0051 36.4542 23.0074 36.4564C23.1516 36.548 23.298 36.6372 23.4445 36.7219C23.4468 36.7219 23.4468 36.7242 23.4491 36.7242C24.5567 37.3604 25.7857 37.7998 27.113 37.7998C32.0035 37.7998 36.5325 32.6987 36.5325 28.9547C36.5325 25.2107 35.4409 23.7918 35.5119 20.6519Z" fill="url(#paint19_radial_505_600)"/>
<defs>
<linearGradient id="paint0_linear_505_600" x1="34.1618" y1="38.7666" x2="30.1318" y2="29.325" gradientUnits="userSpaceOnUse">
<stop offset="0.00132565" stop-color="#FFCB4B"/>
<stop offset="1" stop-color="#FFD748"/>
</linearGradient>
<linearGradient id="paint1_linear_505_600" x1="34.964" y1="32.1997" x2="26.5115" y2="22.1171" gradientUnits="userSpaceOnUse">
<stop offset="0.00132565" stop-color="#FFCB4B"/>
<stop offset="1" stop-color="#FFD748"/>
</linearGradient>
<linearGradient id="paint2_linear_505_600" x1="12.3713" y1="25.487" x2="17.3523" y2="29.1548" gradientUnits="userSpaceOnUse">
<stop offset="0.00132565" stop-color="#FFCB4B"/>
<stop offset="1" stop-color="#FFD748"/>
</linearGradient>
<linearGradient id="paint3_linear_505_600" x1="10.5575" y1="15.7786" x2="19.2968" y2="24.9254" gradientUnits="userSpaceOnUse">
<stop offset="0.00132565" stop-color="#FFCB4B"/>
<stop offset="1" stop-color="#FFD748"/>
</linearGradient>
<linearGradient id="paint4_linear_505_600" x1="17.2664" y1="21.2104" x2="14.3775" y2="23.9319" gradientUnits="userSpaceOnUse">
<stop stop-color="#FFBC47" stop-opacity="0"/>
<stop offset="1" stop-color="#FFA754"/>
</linearGradient>
<linearGradient id="paint5_linear_505_600" x1="19.9971" y1="11.4633" x2="25.0686" y2="19.4328" gradientUnits="userSpaceOnUse">
<stop offset="0.00132565" stop-color="#FFCB4B"/>
<stop offset="1" stop-color="#FFD748"/>
</linearGradient>
<linearGradient id="paint6_linear_505_600" x1="14.7617" y1="12.7871" x2="21.6445" y2="22.0849" gradientUnits="userSpaceOnUse">
<stop offset="0.00132565" stop-color="#FFCB4B"/>
<stop offset="1" stop-color="#FFD748"/>
</linearGradient>
<linearGradient id="paint7_linear_505_600" x1="22.9477" y1="13.9094" x2="18.6007" y2="17.8338" gradientUnits="userSpaceOnUse">
<stop stop-color="#FFBC47" stop-opacity="0"/>
<stop offset="1" stop-color="#FFA754"/>
</linearGradient>
<linearGradient id="paint8_linear_505_600" x1="18.949" y1="16.7053" x2="12.9719" y2="21.0749" gradientUnits="userSpaceOnUse">
<stop stop-color="#FFBC47" stop-opacity="0"/>
<stop offset="1" stop-color="#FFA754"/>
</linearGradient>
<linearGradient id="paint9_linear_505_600" x1="23.4016" y1="22.7965" x2="17.4245" y2="27.1661" gradientUnits="userSpaceOnUse">
<stop stop-color="#FFBC47" stop-opacity="0"/>
<stop offset="1" stop-color="#FFA754"/>
</linearGradient>
<radialGradient id="paint10_radial_505_600" cx="0" cy="0" r="1" gradientUnits="userSpaceOnUse" gradientTransform="translate(31.2445 15.7022) scale(7.17575)">
<stop stop-color="#FFBC47" stop-opacity="0"/>
<stop offset="1" stop-color="#FFA754"/>
</radialGradient>
<linearGradient id="paint11_linear_505_600" x1="23.7431" y1="13.1386" x2="20.03" y2="16.58" gradientUnits="userSpaceOnUse">
<stop offset="0.3118" stop-color="#FFBC47" stop-opacity="0"/>
<stop offset="1" stop-color="#FF8900"/>
</linearGradient>
<linearGradient id="paint12_linear_505_600" x1="20.8997" y1="15.0043" x2="16.0093" y2="19.4117" gradientUnits="userSpaceOnUse">
<stop offset="0.3118" stop-color="#FFBC47" stop-opacity="0"/>
<stop offset="1" stop-color="#FF8900"/>
</linearGradient>
<linearGradient id="paint13_linear_505_600" x1="19.2471" y1="19.7705" x2="13.2096" y2="24.842" gradientUnits="userSpaceOnUse">
<stop offset="0.3118" stop-color="#FFBC47" stop-opacity="0"/>
<stop offset="1" stop-color="#FF8900"/>
</linearGradient>
<linearGradient id="paint14_linear_505_600" x1="12.6594" y1="23.4552" x2="19.678" y2="29.1606" gradientUnits="userSpaceOnUse">
<stop stop-color="#FFBC47" stop-opacity="0"/>
<stop offset="1" stop-color="#FFBC47"/>
</linearGradient>
<linearGradient id="paint15_linear_505_600" x1="14.0026" y1="16.3832" x2="19.4817" y2="24.715" gradientUnits="userSpaceOnUse">
<stop stop-color="#FFBC47" stop-opacity="0"/>
<stop offset="1" stop-color="#FFBC47"/>
</linearGradient>
<linearGradient id="paint16_linear_505_600" x1="18.2943" y1="16.9782" x2="19.8338" y2="15.8009" gradientUnits="userSpaceOnUse">
<stop stop-color="#FFBC47" stop-opacity="0"/>
<stop offset="1" stop-color="#FFA754"/>
</linearGradient>
<linearGradient id="paint17_linear_505_600" x1="25.8916" y1="21.6299" x2="23.8388" y2="11.8491" gradientUnits="userSpaceOnUse">
<stop stop-color="#FFBC47" stop-opacity="0"/>
<stop offset="1" stop-color="#FFBC47"/>
</linearGradient>
<linearGradient id="paint18_linear_505_600" x1="21.2056" y1="31.0164" x2="18.1264" y2="33.8465" gradientUnits="userSpaceOnUse">
<stop offset="0.3118" stop-color="#FFBC47" stop-opacity="0"/>
<stop offset="1" stop-color="#FF8900"/>
</linearGradient>
<radialGradient id="paint19_radial_505_600" cx="0" cy="0" r="1" gradientUnits="userSpaceOnUse" gradientTransform="translate(23.2449 21.6633) rotate(48.1401) scale(20.7993 18.8793)">
<stop offset="0.6134" stop-color="#FFBC47" stop-opacity="0"/>
<stop offset="1" stop-color="#FF8900"/>
</radialGradient>
</defs>
</svg>
