<svg width="65" height="57" viewBox="0 0 65 57" fill="none" xmlns="http://www.w3.org/2000/svg">
<path d="M33.1897 56.9137H21.8298C21.3028 56.9137 20.8755 56.5374 20.8755 56.0732V46.5688C20.8755 46.1216 21.272 45.756 21.7722 45.7298C21.7145 45.446 21.6855 45.157 21.6855 44.8639C21.6855 43.2268 23.0592 42.2747 24.3878 41.3537C25.2438 40.7605 26.1289 40.1468 26.7267 39.3272C26.9023 39.0864 27.2049 38.9409 27.5298 38.9409H27.53C27.8549 38.941 28.1576 39.0867 28.333 39.3275C28.917 40.1291 29.7907 40.7453 30.6357 41.3411C31.9624 42.2767 33.3344 43.244 33.3344 44.864C33.3344 45.157 33.3053 45.4461 33.2477 45.73C33.7479 45.7561 34.1443 46.1218 34.1443 46.5689V56.0732C34.1441 56.5374 33.7168 56.9137 33.1897 56.9137ZM22.784 55.2327H32.2352V47.4093H31.9534C31.6279 47.4093 31.3248 47.263 31.1493 47.0216C30.974 46.78 30.9505 46.4763 31.0872 46.216C31.3114 45.7889 31.4251 45.334 31.4251 44.8639C31.4251 44.0908 30.6716 43.5202 29.4423 42.6533C28.8181 42.2132 28.1375 41.7333 27.5292 41.1475C26.9052 41.7477 26.2073 42.2313 25.5677 42.6748C24.3439 43.5231 23.5937 44.0827 23.5937 44.8639C23.5937 45.3339 23.7074 45.7888 23.9317 46.2161C24.0683 46.4764 24.0449 46.78 23.8694 47.0216C23.6941 47.2632 23.391 47.4093 23.0654 47.4093H22.7838V55.2327H22.784Z" fill="#F2B84B" fill-opacity="0.9"/>
<path d="M52.7303 56.9137H41.3704C40.8433 56.9137 40.416 56.5374 40.416 56.0732V46.5688C40.416 46.1216 40.8123 45.756 41.3126 45.7298C41.2549 45.446 41.2258 45.157 41.2258 44.8639C41.2258 43.2267 42.5996 42.2747 43.928 41.3537C44.7841 40.7605 45.6692 40.1468 46.267 39.3272C46.4425 39.0864 46.7451 38.9409 47.07 38.9409H47.0703C47.3953 38.941 47.6978 39.0867 47.8733 39.3277C48.4572 40.1293 49.331 40.7453 50.176 41.3411C51.5027 42.2767 52.8746 43.244 52.8746 44.864C52.8746 45.1569 52.8456 45.4461 52.7879 45.73C53.2881 45.7563 53.6846 46.1219 53.6846 46.5689V56.0732C53.6846 56.5374 53.2573 56.9137 52.7303 56.9137ZM42.3247 55.2327H51.7759V47.4093H51.4942C51.1687 47.4093 50.8656 47.263 50.6903 47.0216C50.5149 46.7801 50.4915 46.4764 50.6281 46.2161C50.8524 45.7889 50.9661 45.334 50.9661 44.8639C50.9661 44.0908 50.2127 43.5202 48.9832 42.6534C48.3591 42.2132 47.6785 41.7333 47.0701 41.1475C46.4461 41.7477 45.7484 42.2313 45.1088 42.6748C43.8848 43.5231 43.1348 44.0827 43.1348 44.8639C43.1348 45.334 43.2485 45.7889 43.4728 46.216C43.6094 46.4762 43.5861 46.7799 43.4106 47.0216C43.2353 47.2632 42.9322 47.4093 42.6067 47.4093H42.325V55.2327H42.3247Z" fill="#F2B84B" fill-opacity="0.9"/>
<path d="M57.0829 35.3011H17.4749C17.1029 35.3011 16.7648 35.1106 16.6087 34.8132C15.2902 32.3013 14.6216 29.6264 14.6216 26.8627C14.6216 20.9777 19.8597 17.3468 25.4056 13.5026C29.4347 10.7097 33.6009 7.82166 36.5644 3.75834C36.7398 3.5176 37.0425 3.37207 37.3674 3.37207H37.3677C37.6927 3.37207 37.9952 3.51784 38.1707 3.7587C41.065 7.73208 45.1737 10.6294 49.1472 13.4312C54.6956 17.3436 59.9364 21.0391 59.9364 26.8627C59.9364 29.6264 59.2679 32.3013 57.9493 34.8132C57.793 35.1106 57.4549 35.3011 57.0829 35.3011ZM18.0953 33.6201H56.4627C57.5014 31.4737 58.0277 29.203 58.0277 26.8627C58.0277 21.8465 53.3596 18.5549 47.9543 14.7434C44.3805 12.2235 40.3702 9.39554 37.3674 5.70781C34.2966 9.47899 30.219 12.3052 26.5863 14.8235C21.1904 18.5637 16.5304 21.7938 16.5304 26.8627C16.5304 29.203 17.0565 31.4737 18.0953 33.6201Z" fill="#F2B84B" fill-opacity="0.9"/>
<path d="M50.0609 35.3011H24.4979C24.0759 35.3011 23.704 35.0571 23.5833 34.701C22.7436 32.2225 22.3179 29.5853 22.3179 26.8627C22.3179 21.0853 25.6896 17.4639 29.2593 13.6301C31.8556 10.8416 34.5404 7.95806 36.4548 3.89066C36.6026 3.57667 36.9506 3.37207 37.3365 3.37207H37.3366C37.7226 3.37207 38.0706 3.57703 38.2183 3.89102C40.0883 7.86872 42.7364 10.762 45.2972 13.5597C48.8681 17.4612 52.2411 21.1462 52.2411 26.8626C52.2411 29.5852 51.8153 32.2223 50.9756 34.7008C50.8547 35.0571 50.4827 35.3011 50.0609 35.3011ZM25.2187 33.6201H49.34C49.9986 31.4732 50.3321 29.2032 50.3321 26.8627C50.3321 21.7394 47.3102 18.4377 43.811 14.6148C41.643 12.246 39.2266 9.60615 37.3362 6.24332C35.4035 9.68191 32.9422 12.3254 30.7351 14.696C27.2426 18.4468 24.2264 21.6862 24.2264 26.8627C24.2266 29.2032 24.5602 31.4732 25.2187 33.6201Z" fill="#F2B84B" fill-opacity="0.9"/>
<path d="M63.6688 56.9134H10.8899C10.3628 56.9134 9.93555 56.5371 9.93555 56.0729V34.4601C9.93555 33.9959 10.3628 33.6196 10.8899 33.6196H63.6688C64.1959 33.6196 64.6231 33.9959 64.6231 34.4601V56.0729C64.6231 56.5371 64.1959 56.9134 63.6688 56.9134ZM11.8442 55.2324H62.7144V35.3006H11.8442V55.2324Z" fill="#F2B84B" fill-opacity="0.9"/>
<path d="M10.4978 56.9135H0.954349C0.427276 56.9135 0 56.5372 0 56.073V6.84391C0 6.37972 0.427276 6.00342 0.954349 6.00342H10.4978C11.0249 6.00342 11.4522 6.37972 11.4522 6.84391V56.073C11.4522 56.5372 11.0249 56.9135 10.4978 56.9135ZM1.9087 55.2325H9.54349V7.68441H1.9087V55.2325Z" fill="#F2B84B" fill-opacity="0.9"/>
<path d="M10.4978 7.68453H0.954349C0.427276 7.68453 0 7.30823 0 6.84404V5.04298C0 2.26225 2.5687 0 5.72609 0C8.88349 0 11.4522 2.26225 11.4522 5.04298V6.84404C11.4522 7.30823 11.0249 7.68453 10.4978 7.68453ZM1.9087 6.00354H9.54349V5.04298C9.54349 3.1892 7.83098 1.68099 5.72609 1.68099C3.62121 1.68099 1.9087 3.1892 1.9087 5.04298V6.00354Z" fill="#F2B84B" fill-opacity="0.9"/>
<path d="M20.0415 40.1034H10.498C9.97098 40.1034 9.5437 39.7271 9.5437 39.2629C9.5437 38.7987 9.97098 38.4224 10.498 38.4224H20.0415C20.5686 38.4224 20.9959 38.7987 20.9959 39.2629C20.9959 39.7271 20.5686 40.1034 20.0415 40.1034Z" fill="#F2B84B" fill-opacity="0.9"/>
<path d="M63.6687 40.1034H54.1252C53.5982 40.1034 53.1709 39.7271 53.1709 39.2629C53.1709 38.7987 53.5982 38.4224 54.1252 38.4224H63.6687C64.1958 38.4224 64.6231 38.7987 64.6231 39.2629C64.6231 39.7271 64.1958 40.1034 63.6687 40.1034Z" fill="#F2B84B" fill-opacity="0.9"/>
<path d="M40.4918 40.1034H33.6751C33.148 40.1034 32.7207 39.7271 32.7207 39.2629C32.7207 38.7987 33.148 38.4224 33.6751 38.4224H40.4918C41.0189 38.4224 41.4462 38.7987 41.4462 39.2629C41.4462 39.7271 41.0189 40.1034 40.4918 40.1034Z" fill="#F2B84B" fill-opacity="0.9"/>
<path d="M10.4978 24.4946H0.954349C0.427276 24.4946 0 24.1183 0 23.6541V18.8512C0 18.387 0.427276 18.0107 0.954349 18.0107H10.4978C11.0249 18.0107 11.4522 18.387 11.4522 18.8512V23.6541C11.4522 24.1183 11.0249 24.4946 10.4978 24.4946ZM1.9087 22.8136H9.54349V19.6917H1.9087V22.8136Z" fill="#F2B84B" fill-opacity="0.9"/>
<path d="M21.4044 11.2866C17.8711 11.2866 14.9966 8.75505 14.9966 5.64329C14.9966 3.61638 16.2421 1.73475 18.2472 0.732997C18.5605 0.576544 18.9469 0.588551 19.2467 0.764215C19.5465 0.939759 19.7086 1.24918 19.6657 1.56401C19.643 1.73103 19.632 1.88712 19.632 2.04117C19.632 4.22598 21.6503 6.00351 24.1311 6.00351C24.9069 6.00351 25.673 5.8258 26.3462 5.48936C26.6594 5.33267 27.0459 5.3448 27.3459 5.52058C27.6457 5.69625 27.8076 6.00555 27.7648 6.32037C27.3795 9.15164 24.6452 11.2866 21.4044 11.2866ZM17.8604 3.2055C17.252 3.89206 16.9053 4.74745 16.9053 5.64329C16.9053 7.8281 18.9236 9.60563 21.4044 9.60563C23.0736 9.60563 24.5514 8.79924 25.3269 7.58508C24.9339 7.65088 24.5334 7.6845 24.1311 7.6845C21.0508 7.6845 18.4714 5.76048 17.8604 3.2055Z" fill="#F2B84B" fill-opacity="0.9"/>
<path d="M60.2602 8.88473H53.4435C51.8815 8.88473 50.5946 7.82787 50.4563 6.48331H49.3534C47.6995 6.48331 46.354 5.29833 46.354 3.84175C46.354 2.38517 47.6995 1.2002 49.3534 1.2002H56.1702C57.7322 1.2002 59.019 2.25706 59.1573 3.60161H60.2602C61.9141 3.60161 63.2596 4.78659 63.2596 6.24317C63.2596 7.69975 61.9141 8.88473 60.2602 8.88473ZM49.3534 2.88119C48.752 2.88119 48.2627 3.31212 48.2627 3.84175C48.2627 4.37139 48.752 4.80232 49.3534 4.80232H51.5173C51.8272 4.80232 52.1179 4.93488 52.2967 5.15773C52.4756 5.38058 52.5205 5.66611 52.417 5.92342C52.3743 6.0292 52.3528 6.13679 52.3528 6.24317C52.3528 6.7728 52.8421 7.20374 53.4435 7.20374H60.2602C60.8616 7.20374 61.3509 6.7728 61.3509 6.24317C61.3509 5.71354 60.8616 5.2826 60.2602 5.2826H58.0963C57.7864 5.2826 57.4958 5.15005 57.3169 4.92719C57.138 4.70434 57.0932 4.41881 57.1966 4.1615C57.2393 4.05572 57.2608 3.94814 57.2608 3.84175C57.2608 3.31212 56.7715 2.88119 56.1702 2.88119H49.3534Z" fill="#F2B84B" fill-opacity="0.9"/>
<path d="M36.4013 30.4984H15.9509C15.4239 30.4984 14.9966 30.1221 14.9966 29.6579C14.9966 29.1937 15.4239 28.8174 15.9509 28.8174H36.4013C36.9283 28.8174 37.3556 29.1937 37.3556 29.6579C37.3556 30.1221 36.9283 30.4984 36.4013 30.4984Z" fill="#F2B84B" fill-opacity="0.9"/>
<path d="M56.8522 23.2943H30.9485C30.4214 23.2943 29.9941 22.918 29.9941 22.4538C29.9941 21.9896 30.4214 21.6133 30.9485 21.6133H56.8522C57.3793 21.6133 57.8066 21.9896 57.8066 22.4538C57.8066 22.918 57.3793 23.2943 56.8522 23.2943Z" fill="#F2B84B" fill-opacity="0.9"/>
<path d="M37.3362 5.05231C36.8091 5.05231 36.3818 4.67601 36.3818 4.21181V2.04069C36.3818 1.5765 36.8091 1.2002 37.3362 1.2002C37.8633 1.2002 38.2905 1.5765 38.2905 2.04069V4.21181C38.2905 4.67601 37.8634 5.05231 37.3362 5.05231Z" fill="#F2B84B" fill-opacity="0.9"/>
</svg>
