<svg width="32" height="32" viewBox="0 0 32 32" fill="none" xmlns="http://www.w3.org/2000/svg">
<path d="M31.7431 21.6762L31.2006 19.3239C31.1884 19.2742 31.1688 19.2267 31.1425 19.1829C31.0914 19.0385 26.0245 14.4027 25.9221 14.2858C23.7862 13.6599 17.5285 12.2224 15.8907 14.9358C14.2563 12.2258 7.99177 13.6599 5.85923 14.2892C5.7637 14.4062 0.689975 19.0419 0.638794 19.1863C0.612537 19.2301 0.592982 19.2777 0.580789 19.3273L0.0382726 21.6762C-0.644138 22.5772 8.02248 24.0835 8.2272 24.3689L6.50411 26.5664C6.47014 26.6098 6.44361 26.6586 6.42564 26.7108L4.78103 31.3088C4.75604 31.3867 4.74945 31.4695 4.76179 31.5504C4.77413 31.6314 4.80506 31.7084 4.85212 31.7751C4.89917 31.8419 4.96105 31.8967 5.03282 31.9352C5.1046 31.9736 5.18428 31.9946 5.26554 31.9966H8.81748C8.93149 31.9969 9.04221 31.9581 9.13139 31.8865L15.8907 26.5251L22.6499 31.8899C22.7391 31.9615 22.8499 32.0003 22.9639 32H26.5158C26.5971 31.9981 26.6767 31.9771 26.7485 31.9386C26.8203 31.9002 26.8822 31.8454 26.9292 31.7786C26.9763 31.7118 27.0072 31.6348 27.0195 31.5539C27.0319 31.4729 27.0253 31.3902 27.0003 31.3122L25.3557 26.7108C25.3377 26.6586 25.3112 26.6098 25.2772 26.5664L23.5473 24.3689C23.7998 24.0766 32.4084 22.5841 31.7431 21.6762ZM5.70228 20.0874C8.87208 20.2524 13.2975 19.0178 14.9865 22.5978L5.52826 20.0874H5.70228ZM16.7949 22.5978C18.5589 18.9525 22.9741 20.2868 26.2531 20.0874L16.7949 22.5978ZM16.4025 16.105C17.334 13.2472 22.9843 14.695 25.3318 15.1387L29.4263 18.9697C25.0384 19.5784 19.1355 17.5116 16.3854 21.2738L16.4025 16.105ZM6.44952 15.1387C8.80042 14.695 14.444 13.2472 15.3789 16.105V21.2635C12.3387 17.3912 6.73954 19.6265 2.338 18.9594L6.44952 15.1387ZM1.14719 21.4217L1.45769 20.0736L15.3789 23.7671V25.1977L1.14719 21.4217ZM7.36054 27.1407L9.25764 24.7334L11.7553 25.3628L6.38469 29.8713L7.36054 27.1407ZM8.64006 30.9683H6.67813L12.987 25.6688L14.7545 26.1125L8.64006 30.9683ZM23.1413 30.9683L17.0269 26.1125L18.7943 25.6688L25.1032 30.9683H23.1413ZM24.4208 27.1407L25.3966 29.8713L20.0261 25.3593L22.5237 24.73L24.4208 27.1407ZM16.4025 25.1977V23.7671L30.3237 20.0736L30.6341 21.4217L16.4025 25.1977ZM14.014 6.58248C14.0399 6.48219 14.0351 6.37639 14.0004 6.27886C13.9657 6.18133 13.9027 6.09659 13.8196 6.03568L11.7314 4.50877L11.3015 1.95704C11.2844 1.85716 11.2386 1.76454 11.1696 1.69076C11.1007 1.61699 11.0117 1.56532 10.9138 1.5422C10.8159 1.51909 10.7134 1.52556 10.6191 1.56081C10.5248 1.59606 10.4429 1.65852 10.3836 1.74039L8.86866 3.84161L6.33692 4.27492C6.23697 4.29146 6.14413 4.33751 6.07016 4.40726C5.99619 4.47701 5.94442 4.56732 5.9214 4.66674C5.89839 4.76616 5.90516 4.87023 5.94086 4.96577C5.97656 5.06131 6.03959 5.14403 6.12196 5.20344L8.19649 6.72347L8.62641 9.28552C8.64331 9.3858 8.68926 9.47882 8.75847 9.55285C8.82768 9.62689 8.91706 9.67866 9.01538 9.70163C9.05389 9.70667 9.09289 9.70667 9.13139 9.70163C9.21216 9.70222 9.29187 9.68315 9.36375 9.64602C9.43563 9.6089 9.49755 9.55483 9.54425 9.48842L11.0592 7.41127L13.6046 6.97452C13.7041 6.95748 13.7964 6.91117 13.8698 6.84142C13.9433 6.77166 13.9947 6.68157 14.0175 6.58248H14.014ZM10.6805 6.42428C10.6127 6.43378 10.5476 6.45696 10.489 6.49241C10.4304 6.52786 10.3794 6.57487 10.3393 6.63062L9.41459 7.90992L9.15187 6.34863C9.14248 6.28075 9.11987 6.21542 9.08532 6.15639C9.05076 6.09737 9.00496 6.04583 8.95055 6.00473L7.70174 5.08996L9.25082 4.82516C9.31853 4.81565 9.38365 4.79248 9.44228 4.75703C9.50091 4.72158 9.55184 4.67457 9.59202 4.61882L10.5167 3.33952L10.7726 4.89738C10.7818 4.9653 10.8043 5.0307 10.8389 5.08975C10.8735 5.1488 10.9194 5.20031 10.9739 5.24127L12.2466 6.1698L10.6805 6.42428ZM20.9712 7.13615C20.9219 7.04755 20.8476 6.97572 20.7576 6.92979C20.6677 6.88387 20.5663 6.86592 20.4662 6.87823L17.9038 7.1843L15.8566 5.59893C15.7768 5.53768 15.681 5.50137 15.581 5.49452C15.481 5.48767 15.3812 5.51057 15.294 5.56038C15.2067 5.61019 15.136 5.68472 15.0904 5.77472C15.0448 5.86472 15.0265 5.96622 15.0377 6.06663L15.3413 8.64931L13.7684 10.7127C13.707 10.7935 13.6707 10.8908 13.664 10.9924C13.6574 11.0939 13.6807 11.1952 13.731 11.2835C13.7814 11.3717 13.8565 11.4429 13.9469 11.4882C14.0373 11.5336 14.1391 11.5509 14.2392 11.5381L16.7983 11.232L18.8455 12.8174C18.9252 12.8787 19.0209 12.9153 19.1209 12.9226C19.2209 12.9299 19.3209 12.9077 19.4085 12.8586C19.4964 12.8089 19.5677 12.734 19.6132 12.6434C19.6588 12.5527 19.6766 12.4505 19.6644 12.3497L19.3607 9.76697L20.9337 7.70358C20.9948 7.62331 21.031 7.52658 21.0377 7.4256C21.0444 7.32461 21.0213 7.2239 20.9712 7.13615ZM18.419 9.29927C18.3371 9.40704 18.3004 9.54283 18.3166 9.67756L18.5009 11.2492L17.2555 10.2828C17.165 10.2141 17.0549 10.1767 16.9416 10.1762H16.8836L15.3209 10.3619L16.2831 9.13076C16.3649 9.02299 16.4017 8.88721 16.3854 8.75247L16.2012 7.18086L17.4466 8.14721C17.4987 8.1883 17.5585 8.21857 17.6223 8.23627C17.6861 8.25398 17.7528 8.25878 17.8185 8.25038L19.3778 8.06468L18.419 9.29927ZM22.493 7.51444C22.567 7.55232 22.6488 7.57234 22.7318 7.5729C22.8565 7.57692 22.9781 7.53401 23.073 7.45254L25.0623 5.79495L27.6315 6.01161C27.732 6.02164 27.833 6.00071 27.9214 5.95159C28.0097 5.90246 28.0812 5.82745 28.1263 5.73649C28.1726 5.64652 28.1918 5.54486 28.1815 5.44402C28.1712 5.34319 28.1318 5.24761 28.0683 5.16905L26.4237 3.16757L26.6386 0.574574C26.6505 0.470278 26.6305 0.364819 26.5813 0.27228C26.5321 0.179741 26.4561 0.104528 26.3634 0.056685C26.2707 0.0088424 26.1657 -0.00935201 26.0625 0.00453166C25.9592 0.0184153 25.8626 0.0637161 25.7856 0.134384L23.7964 1.79541L21.2271 1.565C21.1267 1.55496 21.0256 1.57589 20.9373 1.62502C20.849 1.67415 20.7775 1.74916 20.7324 1.84012C20.686 1.93009 20.6668 2.03175 20.6771 2.13258C20.6875 2.23341 20.7268 2.329 20.7904 2.40755L22.435 4.40904L22.22 6.99859C22.2094 7.1022 22.2296 7.20666 22.2783 7.29857C22.3269 7.39049 22.4017 7.46566 22.493 7.51444ZM22.3565 2.69987L23.9192 2.83399C24.0535 2.84484 24.1868 2.80295 24.2911 2.71706L25.499 1.706L25.3694 3.28449C25.3588 3.41878 25.4004 3.55195 25.4854 3.6559L26.4851 4.8733L24.9224 4.74262C24.7881 4.73177 24.6548 4.77366 24.5505 4.85955L23.3426 5.87061L23.4722 4.31619C23.4828 4.1819 23.4412 4.04873 23.3562 3.94478L22.3565 2.69987Z" fill="#8492A3" fill-opacity="0.5"/>
</svg>
