<svg width="44" height="45" viewBox="0 0 44 45" fill="none" xmlns="http://www.w3.org/2000/svg">
<path d="M5.18825 44.3801C5.02369 44.3801 4.85922 44.3155 4.73369 44.1865C4.48262 43.9282 4.48262 43.5096 4.73369 43.2513L7.65577 40.2455C8.65829 39.2143 8.65829 37.5362 7.65577 36.5049C6.65324 35.4738 5.02204 35.4739 4.01942 36.505L1.09734 39.5107C0.846365 39.769 0.439276 39.7689 0.188301 39.5108C-0.0627669 39.2525 -0.0627669 38.8339 0.188301 38.5756L3.11038 35.5698C4.61421 34.023 7.06106 34.0229 8.5649 35.5698C10.0686 37.1167 10.0686 39.6338 8.5649 41.1806L5.64282 44.1865C5.51728 44.3156 5.35272 44.3801 5.18825 44.3801Z" fill="#8492A3" fill-opacity="0.5"/>
<path d="M2.91606 42.0425C2.7515 42.0425 2.58703 41.9779 2.46149 41.8488C2.21043 41.5906 2.21043 41.1719 2.46149 40.9136L7.65631 35.57C7.90738 35.3119 8.31447 35.312 8.56535 35.57C8.81642 35.8283 8.81642 36.2469 8.56535 36.5052L3.37053 41.8488C3.24509 41.9779 3.08053 42.0425 2.91606 42.0425Z" fill="#8492A3" fill-opacity="0.5"/>
<path d="M8.66524 36.2215C8.49498 36.2215 8.33079 36.152 8.20975 36.0269C8.07752 35.8902 8.00974 35.7009 8.02444 35.5085C8.099 34.5316 8.16604 33.5342 8.23721 32.4782L8.29378 31.6399C8.31619 31.31 8.57212 31.0478 8.89289 31.0261C9.25737 31.0015 9.60164 30.8403 9.86226 30.5722C10.1482 30.2782 10.3056 29.8868 10.3056 29.4702C10.3056 29.0537 10.1481 28.6623 9.86226 28.3681C9.65647 28.1565 9.39594 28.0111 9.10897 27.9476C8.79371 27.878 8.57745 27.5788 8.60325 27.2483C8.68645 26.1823 8.77103 25.2167 8.86185 24.2964C8.89518 23.9588 9.17151 23.702 9.50136 23.702C9.90331 23.702 10.2823 23.5398 10.5685 23.2453C10.8542 22.9515 11.0114 22.5606 11.0109 22.1449C11.0105 21.7289 10.8527 21.3377 10.5665 21.0433C10.3739 20.8451 10.1353 20.7041 9.87659 20.6358C9.55637 20.551 9.35076 20.2302 9.40145 19.894C9.63048 18.3748 9.88366 17.0303 10.1758 15.7839C10.2564 15.4395 10.5868 15.2215 10.9246 15.2899C11.0215 15.3095 11.1208 15.3195 11.2195 15.3195C11.6226 15.3195 12.002 15.1575 12.2881 14.8633C12.8776 14.2569 12.8767 13.2691 12.2861 12.6613C12.1481 12.5194 11.9944 12.4103 11.8291 12.337C11.5078 12.1945 11.3564 11.8137 11.4884 11.4803C11.9774 10.2458 12.5327 9.15234 13.139 8.23065C13.2403 8.07668 13.3999 7.97362 13.5788 7.94688C13.7578 7.91987 13.9392 7.97192 14.079 8.0899C14.3467 8.31567 14.6859 8.43998 15.0344 8.43998C15.439 8.43998 15.8196 8.27779 16.1059 7.98325C16.6658 7.4073 16.6976 6.47447 16.1782 5.8597C16.0611 5.72103 16.0052 5.53862 16.0242 5.35593C16.0431 5.17323 16.135 5.00698 16.2778 4.89683C17.4296 4.00868 18.686 3.29019 20.0119 2.7611C20.1857 2.69185 20.38 2.70347 20.5447 2.79293C20.7094 2.88248 20.8282 3.04118 20.8705 3.22784C20.9355 3.51539 21.0754 3.77611 21.2755 3.98176C21.5614 4.27592 21.9419 4.43783 22.3469 4.43783C22.7517 4.43783 23.1323 4.27583 23.4183 3.98176C23.7911 3.59814 23.9424 3.05271 23.823 2.52276C23.781 2.33591 23.8198 2.13943 23.9295 1.98441C24.0392 1.8293 24.209 1.73087 24.3947 1.71472C25.5255 1.61563 26.6818 1.64274 27.8069 1.79416C27.997 1.81976 28.166 1.93142 28.268 2.09843C28.3698 2.26554 28.394 2.47071 28.3336 2.65794C28.1513 3.22369 28.2912 3.83572 28.699 4.25514C28.9849 4.5492 29.3654 4.71121 29.7703 4.71121C30.1753 4.71121 30.5558 4.5493 30.8416 4.25514C31.0432 4.04779 31.183 3.78697 31.2458 3.50094C31.2882 3.30804 31.4123 3.14481 31.584 3.05592C31.7556 2.96703 31.9571 2.96183 32.1329 3.04194C33.228 3.54005 34.2638 4.16436 35.212 4.8974C35.3546 5.00764 35.4463 5.17389 35.465 5.3564C35.4838 5.5389 35.4281 5.72122 35.311 5.8597C34.7916 6.47457 34.8234 7.4074 35.3833 7.98325C35.6693 8.27751 36.0493 8.43951 36.4533 8.43951C36.819 8.43951 37.1721 8.30386 37.4475 8.05769C37.5824 7.93725 37.7596 7.88019 37.9372 7.89927C38.1147 7.91873 38.2763 8.0132 38.3834 8.16009C39.065 9.09481 39.6507 10.1118 40.1244 11.1829C40.1983 11.3499 40.2014 11.541 40.1329 11.7104C40.0645 11.8799 39.9307 12.0124 39.7635 12.0765C39.5589 12.1549 39.3759 12.2761 39.2196 12.4369C38.9334 12.7314 38.7756 13.1226 38.7754 13.5386C38.7752 13.9547 38.9329 14.3462 39.2195 14.6411C39.5044 14.934 39.8842 15.0953 40.2893 15.0953C40.3958 15.0953 40.5026 15.0838 40.6065 15.0612C40.7802 15.0232 40.9621 15.0612 41.1081 15.1661C41.254 15.271 41.351 15.4333 41.3762 15.6146C41.5329 16.7435 41.5734 17.8894 41.4965 19.0207C41.484 19.2036 41.3983 19.373 41.2598 19.4884C41.1213 19.6037 40.9425 19.6548 40.766 19.6294C40.697 19.6195 40.6266 19.6144 40.5568 19.6144C40.1535 19.6144 39.7737 19.7767 39.4873 20.0712C38.8966 20.6789 38.8956 21.6667 39.4853 22.2733C39.6674 22.4607 39.8924 22.5984 40.1358 22.6716C40.3068 22.7232 40.4494 22.8454 40.5295 23.0091C40.6096 23.1729 40.62 23.3635 40.5582 23.5354C40.0669 24.9034 39.398 26.1966 38.57 27.3787C38.4656 27.5277 38.3058 27.6252 38.1288 27.6483C37.9514 27.6707 37.7734 27.6174 37.6364 27.4998C37.3653 27.2668 37.0207 27.1386 36.6663 27.1386C36.2621 27.1386 35.8817 27.3008 35.5955 27.5954C35.0369 28.1698 35.003 29.1005 35.5182 29.714C35.6366 29.8551 35.6917 30.0409 35.6699 30.2258C35.648 30.4108 35.5515 30.5778 35.4038 30.6855C34.5071 31.3402 33.4466 31.9366 32.2516 32.4582C32.0899 32.5285 31.9074 32.528 31.7463 32.4568C31.5851 32.3854 31.4593 32.2492 31.398 32.0801C31.3219 31.8696 31.2047 31.6821 31.0496 31.5226C30.7638 31.2286 30.3833 31.0666 29.9783 31.0666C29.5734 31.0666 29.1929 31.2287 28.9069 31.5227C28.5176 31.9232 28.3695 32.5096 28.5206 33.0528C28.5684 33.2248 28.5465 33.4093 28.4599 33.5644C28.3733 33.7195 28.2292 33.8317 28.0607 33.8757C26.858 34.1895 25.5148 34.4735 24.0682 34.7197C23.898 34.7483 23.7239 34.706 23.5847 34.6016C23.4453 34.4972 23.3527 34.3396 23.3273 34.1642C23.2793 33.8306 23.132 33.5288 22.9012 33.2916C22.6148 32.9968 22.2344 32.8345 21.8301 32.8345C21.4255 32.8345 21.045 32.9968 20.7585 33.2915C20.4283 33.6313 20.2702 34.1014 20.3247 34.5816C20.3447 34.7568 20.2956 34.9331 20.1886 35.071C20.0816 35.2089 19.9253 35.297 19.7548 35.3158C18.7901 35.4222 17.834 35.5182 16.9129 35.601C16.7426 35.616 16.5734 35.5612 16.4427 35.4479C16.3121 35.3346 16.2305 35.1724 16.2164 34.9972C16.1858 34.6199 16.0344 34.2813 15.7784 34.0182C15.492 33.7234 15.1116 33.5612 14.7073 33.5612C14.3027 33.5612 13.9221 33.7234 13.6357 34.0181C13.325 34.3377 13.1649 34.78 13.1963 35.2318C13.2085 35.4069 13.1525 35.58 13.0406 35.7126C12.9286 35.8452 12.7699 35.9266 12.5996 35.9388L11.8446 35.9925C10.7544 36.0698 9.7247 36.143 8.71281 36.2202C8.69692 36.2209 8.68112 36.2215 8.66524 36.2215ZM9.54159 32.247L9.51982 32.5697C9.46702 33.3548 9.41633 34.1075 9.36307 34.8449C10.1389 34.7875 10.9303 34.7313 11.7562 34.6726L11.9427 34.6593C12.0356 34.0672 12.3068 33.5144 12.7268 33.0825C13.256 32.5381 13.9594 32.2382 14.7074 32.2382C15.4551 32.2382 16.1583 32.5381 16.6876 33.0825C17.001 33.4048 17.2336 33.7995 17.3694 34.2306C17.9199 34.1787 18.4808 34.1224 19.0467 34.0622C19.118 33.4219 19.3958 32.8225 19.8496 32.3559C20.3788 31.8115 21.0822 31.5116 21.8303 31.5116C22.5781 31.5116 23.2812 31.8115 23.8105 32.3559C24.0802 32.6332 24.2882 32.9578 24.4274 33.3145C25.4028 33.1383 26.3243 32.9446 27.1789 32.736C27.1495 31.9444 27.4391 31.162 27.9979 30.5871C28.5268 30.0431 29.2301 29.7436 29.9783 29.7436C30.7267 29.7436 31.4301 30.0431 31.9588 30.587C32.0817 30.7135 32.1919 30.8498 32.2887 30.9948C32.9658 30.6737 33.5882 30.3273 34.1493 29.9594C33.6405 28.8808 33.8281 27.5425 34.6864 26.6596C35.2156 26.1153 35.9187 25.8156 36.6664 25.8156C37.0847 25.8156 37.4958 25.9124 37.8691 26.0947C38.363 25.3232 38.786 24.5055 39.1324 23.6525C38.9307 23.5292 38.7435 23.3798 38.5762 23.208C37.4855 22.0858 37.4864 20.2589 38.5783 19.1357C39.0327 18.6683 39.615 18.3811 40.2434 18.3093C40.2603 17.6787 40.2378 17.0452 40.1763 16.4152C39.4704 16.3867 38.8116 16.0911 38.3107 15.5759C37.7811 15.0311 37.4897 14.3072 37.49 13.5375C37.4903 12.7686 37.7818 12.0456 38.3107 11.5015C38.43 11.3789 38.5577 11.2686 38.6935 11.1712C38.4014 10.577 38.0714 10.0038 37.707 9.45746C37.3207 9.65602 36.892 9.76163 36.4536 9.76163C35.7061 9.76163 35.0033 9.46208 34.4744 8.91807C33.6088 8.02774 33.4259 6.67615 33.9506 5.59256C33.4009 5.20403 32.8227 4.85385 32.2221 4.54561C32.0961 4.78083 31.9378 4.99781 31.751 5.19005C31.2223 5.73388 30.5189 6.03342 29.7706 6.03342C29.0224 6.03342 28.3189 5.73388 27.7903 5.18995C27.2245 4.60796 26.9374 3.82618 26.9716 3.03126C26.3651 2.97874 25.7567 2.96504 25.1477 2.99055C25.1219 3.70734 24.8363 4.39334 24.3277 4.91667C23.7988 5.46059 23.0955 5.76014 22.3472 5.76014C21.5989 5.76014 20.8955 5.46059 20.3668 4.91667C20.1738 4.7182 20.0111 4.49253 19.8827 4.2472C19.0662 4.61769 18.2817 5.06828 17.5393 5.59294C18.0637 6.67644 17.8808 8.02784 17.0153 8.91807C16.4862 9.46237 15.7827 9.7622 15.0347 9.7622C14.6319 9.7622 14.2354 9.67217 13.8734 9.50242C13.5266 10.0896 13.1991 10.7434 12.8944 11.456C12.9995 11.5376 13.0999 11.6277 13.1954 11.7259C14.2874 12.8493 14.2883 14.676 13.1974 15.7982C12.688 16.3222 12.0175 16.6193 11.3017 16.6405C11.1022 17.5485 10.9213 18.5152 10.7537 19.5699C11.0188 19.7075 11.2629 19.8888 11.4758 20.1078C12.0045 20.6516 12.2962 21.3746 12.2968 22.1433C12.2975 22.9128 12.0067 23.6362 11.4779 24.1801C11.0909 24.5783 10.6113 24.8456 10.09 24.9604C10.0336 25.5579 9.97944 26.1786 9.92618 26.8367C10.2401 26.9794 10.5266 27.1807 10.7717 27.4327C11.3004 27.9767 11.5916 28.7002 11.5916 29.4699C11.5916 30.2397 11.3004 30.9633 10.7717 31.5071C10.4269 31.8618 10.0027 32.115 9.54159 32.247Z" fill="#8492A3" fill-opacity="0.5"/>
<path d="M36.4547 9.76013C35.7054 9.76013 35.0021 9.46106 34.4743 8.91817C33.3834 7.79613 33.3844 5.96929 34.4762 4.84593C35.0047 4.30238 35.7084 4.00293 36.4578 4.00293C37.2058 4.00293 37.908 4.30153 38.4351 4.84375C38.9628 5.38664 39.2535 6.11014 39.2535 6.88096C39.2535 7.65179 38.9628 8.37529 38.435 8.91817C37.9073 9.46106 37.204 9.76013 36.4547 9.76013ZM36.4578 5.32543C36.0518 5.32543 35.671 5.48724 35.3854 5.78102C34.7946 6.38871 34.7938 7.37652 35.3833 7.98298C35.6684 8.2761 36.0488 8.43754 36.4547 8.43754C36.8606 8.43754 37.2411 8.2761 37.526 7.98298C37.811 7.68986 37.9679 7.29849 37.9679 6.88087C37.9679 6.46324 37.811 6.07197 37.526 5.77876C37.2417 5.48649 36.8624 5.32543 36.4578 5.32543Z" fill="#8492A3" fill-opacity="0.5"/>
<path d="M40.2884 16.4163H40.2882C39.5401 16.4162 38.8379 16.1176 38.3109 15.5755C37.7831 15.0326 37.4924 14.3091 37.4924 13.5383C37.4924 12.7674 37.7831 12.0439 38.3109 11.501C38.8387 10.9582 39.5419 10.6592 40.2913 10.6592C41.0406 10.6592 41.7439 10.9582 42.2716 11.501C42.7995 12.0439 43.0897 12.7672 43.089 13.5378C43.0883 14.3076 42.7973 15.0305 42.2696 15.5733C41.7412 16.1169 41.0376 16.4163 40.2884 16.4163ZM40.2913 11.9817C39.8854 11.9817 39.5049 12.1431 39.2199 12.4362C38.9349 12.7294 38.778 13.1207 38.778 13.5383C38.778 13.956 38.9349 14.3472 39.2199 14.6405C39.5042 14.9328 39.8836 15.0939 40.2882 15.0939H40.2884C40.6942 15.0939 41.075 14.9321 41.3607 14.6383C41.6458 14.3449 41.8031 13.9536 41.8035 13.5366C41.8038 13.1199 41.6473 12.7291 41.3627 12.4363C41.0777 12.1431 40.6972 11.9817 40.2913 11.9817Z" fill="#8492A3" fill-opacity="0.5"/>
<path d="M40.5569 24.0499C39.8077 24.0499 39.1044 23.7509 38.5766 23.2081C37.4857 22.0859 37.4866 20.2591 38.5785 19.1358C39.1064 18.5929 39.8089 18.2939 40.5569 18.2939C41.305 18.2939 42.0076 18.5929 42.5354 19.1358C43.063 19.6787 43.354 20.4015 43.3548 21.1713C43.3555 21.9419 43.0652 22.6652 42.5375 23.2081C42.0095 23.7509 41.3062 24.0499 40.5569 24.0499ZM40.5569 19.6163C40.1524 19.6163 39.7726 19.7778 39.4876 20.0709C38.8969 20.6786 38.896 21.6664 39.4856 22.273C39.7706 22.566 40.151 22.7274 40.5569 22.7274C40.9629 22.7274 41.3433 22.566 41.6283 22.2729C41.913 21.98 42.0695 21.5893 42.0691 21.1725C42.0688 20.7555 41.9115 20.3643 41.6263 20.0709C41.3413 19.7778 40.9616 19.6163 40.5569 19.6163Z" fill="#8492A3" fill-opacity="0.5"/>
<path d="M36.6665 31.5759C35.9172 31.5759 35.2138 31.2769 34.6861 30.734C34.1583 30.1912 33.8677 29.4677 33.8677 28.6968C33.8677 27.926 34.1583 27.2026 34.6861 26.6596C35.2138 26.1169 35.9172 25.8179 36.6665 25.8179C37.4158 25.8179 38.1191 26.1169 38.6469 26.6596C39.7389 27.7831 39.7389 29.6108 38.647 30.7342C38.1191 31.2769 37.4159 31.5759 36.6665 31.5759ZM36.6665 27.1403C36.2605 27.1403 35.8801 27.3017 35.5952 27.5948C35.3102 27.888 35.1532 28.2793 35.1532 28.6968C35.1532 29.1145 35.3102 29.5057 35.5951 29.7989C35.8802 30.0921 36.2605 30.2535 36.6665 30.2535C37.0724 30.2535 37.4529 30.0921 37.7378 29.7989C38.3286 29.1913 38.3286 28.2025 37.7378 27.5947C37.4529 27.3017 37.0723 27.1403 36.6665 27.1403Z" fill="#8492A3" fill-opacity="0.5"/>
<path d="M29.9783 35.5028C29.229 35.5028 28.5257 35.2038 27.9979 34.6609C26.906 33.5375 26.906 31.7098 27.9979 30.5865C28.5257 30.0436 29.229 29.7446 29.9783 29.7446C30.7276 29.7446 31.431 30.0436 31.9587 30.5864C33.0507 31.7098 33.0507 33.5375 31.9587 34.6609C31.431 35.2038 30.7276 35.5028 29.9783 35.5028ZM29.9783 31.0671C29.5724 31.0671 29.1919 31.2286 28.9069 31.5217C28.3162 32.1294 28.3162 33.118 28.907 33.7258C29.1919 34.0189 29.5724 34.1804 29.9783 34.1804C30.3843 34.1804 30.7647 34.0189 31.0496 33.7258C31.6405 33.118 31.6405 32.1294 31.0496 31.5217C30.7647 31.2286 30.3842 31.0671 29.9783 31.0671Z" fill="#8492A3" fill-opacity="0.5"/>
<path d="M21.8268 37.2707H21.8266C21.0786 37.2707 20.3764 36.9721 19.8493 36.43C18.7573 35.3066 18.7573 33.4789 19.8493 32.3555C20.3771 31.8126 21.0804 31.5137 21.8298 31.5137C22.5791 31.5137 23.2823 31.8126 23.8102 32.3555C24.338 32.8984 24.6282 33.6217 24.6275 34.3924C24.6268 35.1621 24.3357 35.8851 23.808 36.4279C23.2797 36.9713 22.576 37.2707 21.8268 37.2707ZM21.8298 32.8361C21.4239 32.8361 21.0434 32.9975 20.7584 33.2906C20.1676 33.8984 20.1676 34.8871 20.7584 35.4949C21.0426 35.7872 21.422 35.9482 21.8266 35.9482H21.8267C22.2325 35.9482 22.6133 35.7864 22.899 35.4926C23.1842 35.1993 23.3415 34.808 23.3419 34.391C23.3422 33.9743 23.1857 33.5836 22.9011 33.2908C22.6162 32.9975 22.2357 32.8361 21.8298 32.8361Z" fill="#8492A3" fill-opacity="0.5"/>
<path d="M14.7039 37.9975C14.7038 37.9975 14.7037 37.9975 14.7036 37.9975C13.9555 37.9975 13.2534 37.6989 12.7263 37.1569C11.6342 36.0334 11.6342 34.2057 12.7263 33.0824C13.2545 32.539 13.9579 32.2397 14.7069 32.2397C15.4556 32.2397 16.1588 32.539 16.6871 33.0825C17.7779 34.2045 17.777 36.0313 16.685 37.1546C16.1567 37.6983 15.4531 37.9975 14.7039 37.9975ZM14.707 33.5622C14.3014 33.5622 13.9208 33.724 13.6354 34.0175C13.0447 34.6252 13.0447 35.6139 13.6354 36.2217C13.9196 36.5141 14.2991 36.675 14.7038 36.675C15.1096 36.675 15.4904 36.5133 15.776 36.2195C16.3667 35.6118 16.3677 34.624 15.778 34.0176C15.4927 33.724 15.1123 33.5622 14.707 33.5622Z" fill="#8492A3" fill-opacity="0.5"/>
<path d="M29.7701 6.03216C29.0209 6.03216 28.3175 5.73318 27.7898 5.1903C26.6977 4.06694 26.6977 2.23915 27.7897 1.11588C28.3175 0.572999 29.0208 0.273926 29.7701 0.273926C30.5195 0.273926 31.2228 0.572999 31.7505 1.11588C32.2783 1.65877 32.5689 2.38227 32.5689 3.15309C32.5689 3.92392 32.2783 4.64742 31.7505 5.1903C31.2228 5.73318 30.5195 6.03216 29.7701 6.03216ZM29.7701 1.59652C29.3642 1.59652 28.9838 1.75795 28.6988 2.05108C28.1081 2.65876 28.1081 3.64752 28.6988 4.2552C28.9838 4.54832 29.3642 4.70976 29.7701 4.70976C30.1761 4.70976 30.5565 4.54832 30.8414 4.2552C31.1265 3.96208 31.2834 3.57072 31.2834 3.15309C31.2834 2.73547 31.1265 2.3442 30.8415 2.05098C30.5565 1.75795 30.1761 1.59652 29.7701 1.59652Z" fill="#8492A3" fill-opacity="0.5"/>
<path d="M22.3463 5.75814C21.5969 5.75814 20.8935 5.45916 20.3659 4.91628C19.2739 3.79301 19.2739 1.96523 20.3659 0.841862C20.8936 0.298978 21.5969 0 22.3463 0C23.0955 0 23.7989 0.298978 24.3266 0.841862C25.4187 1.96523 25.4187 3.79301 24.3267 4.91628C23.7989 5.45916 23.0955 5.75814 22.3463 5.75814ZM22.3463 1.32249C21.9403 1.32249 21.5598 1.48393 21.2749 1.77706C20.6841 2.38474 20.6841 3.3735 21.2749 3.98118C21.5598 4.2743 21.9403 4.43574 22.3463 4.43574C22.7522 4.43574 23.1326 4.2744 23.4176 3.98118C24.0083 3.3735 24.0083 2.38474 23.4176 1.77706C23.1326 1.48393 22.7522 1.32249 22.3463 1.32249Z" fill="#8492A3" fill-opacity="0.5"/>
<path d="M15.0348 9.76003C14.2855 9.76003 13.5822 9.46096 13.0544 8.91808C11.9623 7.79481 11.9623 5.96702 13.0544 4.84375C13.5815 4.30153 14.2837 4.00293 15.0318 4.00293C15.7812 4.00293 16.4849 4.30229 17.0133 4.84593C18.1053 5.9692 18.1061 7.79603 17.0153 8.91817C16.4875 9.46096 15.7842 9.76003 15.0348 9.76003ZM15.0318 5.32533C14.6272 5.32533 14.2477 5.48639 13.9635 5.77885C13.6786 6.07197 13.5216 6.46334 13.5216 6.88096C13.5216 7.29849 13.6786 7.68986 13.9635 7.98298C14.2485 8.2761 14.6289 8.43754 15.0349 8.43754C15.4409 8.43754 15.8213 8.2761 16.1063 7.98298C16.6959 7.37652 16.695 6.38871 16.1043 5.78102C15.8185 5.48715 15.4377 5.32533 15.0318 5.32533Z" fill="#8492A3" fill-opacity="0.5"/>
<path d="M11.2165 16.6402C10.4674 16.6402 9.7641 16.3409 9.23579 15.7976C8.14373 14.6742 8.14373 12.8465 9.23579 11.7231C9.76291 11.1809 10.4651 10.8823 11.2132 10.8823C11.9625 10.8823 12.6662 11.1817 13.1947 11.7252C14.2867 12.8486 14.2876 14.6753 13.1967 15.7975C12.6685 16.3408 11.9651 16.6402 11.2165 16.6402ZM11.2132 12.2048C10.8086 12.2048 10.4291 12.3659 10.1449 12.6582C9.55417 13.2659 9.55417 14.2547 10.1449 14.8624C10.4303 15.156 10.8109 15.3177 11.2165 15.3177C11.6219 15.3177 12.0022 15.156 12.2876 14.8624C12.8772 14.2559 12.8764 13.2681 12.2856 12.6603C11.9999 12.3666 11.6191 12.2048 11.2132 12.2048Z" fill="#8492A3" fill-opacity="0.5"/>
<path d="M9.49708 25.0222C8.74774 25.0222 8.0444 24.7233 7.51665 24.1803C6.98889 23.6375 6.69824 22.914 6.69824 22.1432C6.69824 21.3723 6.98889 20.6488 7.51665 20.106C8.04376 19.5637 8.74599 19.2651 9.49405 19.2651C10.2434 19.2651 10.9471 19.5645 11.4755 20.108C12.5676 21.2314 12.5684 23.0582 11.4775 24.1804C10.9498 24.7233 10.2464 25.0222 9.49708 25.0222ZM9.49405 20.5875C9.08944 20.5875 8.71 20.7486 8.42578 21.0411C8.14082 21.3342 7.98388 21.7255 7.98388 22.1432C7.98388 22.5608 8.14082 22.9521 8.42578 23.2452C8.71073 23.5384 9.09119 23.6998 9.49718 23.6998C9.90316 23.6998 10.2835 23.5384 10.5686 23.2453C11.1581 22.6387 11.1572 21.6509 10.5666 21.0432C10.2808 20.7494 9.89995 20.5875 9.49405 20.5875Z" fill="#8492A3" fill-opacity="0.5"/>
<path d="M8.79094 32.349C8.04159 32.349 7.33826 32.05 6.8105 31.507C5.71844 30.3837 5.71844 28.556 6.8105 27.4327C7.33826 26.8898 8.04159 26.5908 8.79094 26.5908C9.54028 26.5908 10.2436 26.8898 10.7714 27.4326C11.8634 28.556 11.8634 30.3837 10.7714 31.5071C10.2437 32.05 9.54028 32.349 8.79094 32.349ZM8.79094 27.9133C8.38504 27.9133 8.00449 28.0748 7.71954 28.3679C7.12879 28.9756 7.12879 29.9642 7.71954 30.5719C8.00449 30.8651 8.38495 31.0266 8.79094 31.0266C9.19693 31.0266 9.57729 30.8651 9.86234 30.572C10.4531 29.9642 10.4531 28.9756 9.86234 28.3678C9.57738 28.0748 9.19693 27.9133 8.79094 27.9133Z" fill="#8492A3" fill-opacity="0.5"/>
</svg>
