<svg width="49" height="45" viewBox="0 0 49 45" fill="none" xmlns="http://www.w3.org/2000/svg">
<path d="M24.6166 44.372C18.0412 44.372 11.8594 42.0141 7.21005 37.7326C2.56065 33.4511 0 27.7587 0 21.7037C0 18.0803 0.951562 14.476 2.75193 11.2808C4.49342 8.1899 7.03071 5.46595 10.0895 3.40362C10.4292 3.17453 10.8848 3.15504 11.2462 3.35424C11.6075 3.55333 11.8042 3.93242 11.7456 4.31643C11.5976 5.28412 11.5227 6.266 11.5227 7.23475C11.5227 18.6703 21.6258 27.9738 34.0442 27.9738C38.8614 27.9738 43.4569 26.5922 47.3336 23.9783C47.6733 23.7492 48.1291 23.7296 48.4904 23.9289C48.8517 24.128 49.0484 24.507 48.9898 24.8911C48.1704 30.2505 45.2724 35.176 40.8298 38.7604C36.3445 42.3791 30.5865 44.372 24.6166 44.372ZM9.44534 6.38001C4.80537 10.2871 2.09503 15.8669 2.09503 21.7037C2.09503 33.1393 12.1982 42.4428 24.6166 42.4428C34.9547 42.4428 43.9432 35.8667 46.4447 26.8208C42.6937 28.8436 38.4538 29.9029 34.0442 29.9029C27.4689 29.9029 21.2871 27.545 16.6377 23.2635C11.9883 18.9821 9.42763 13.2896 9.42763 7.23465C9.42763 6.95058 9.4335 6.66554 9.44534 6.38001Z" fill="#F2B84B" fill-opacity="0.7"/>
<path d="M28.8065 41.9605C22.2312 41.9605 16.0494 39.6026 11.4 35.3211C6.75059 31.0396 4.18994 25.3472 4.18994 19.2922C4.18994 18.7595 4.65891 18.3276 5.23746 18.3276C5.816 18.3276 6.28497 18.7595 6.28497 19.2922C6.28497 30.7278 16.3881 40.0313 28.8065 40.0313C32.606 40.0313 35.1127 39.7502 38.2683 38.2139C38.7799 37.965 39.4136 38.1448 39.684 38.6158C39.9544 39.0868 39.759 39.6704 39.2475 39.9195C35.7232 41.6352 32.8591 41.9605 28.8065 41.9605Z" fill="#F2B84B" fill-opacity="0.7"/>
<path d="M35.3417 19.7967C35.1256 19.7967 34.9096 19.7353 34.7259 19.6125L30.3776 16.7032L26.0292 19.6125C25.662 19.8581 25.165 19.8581 24.7978 19.6125C24.4306 19.3669 24.2771 18.9315 24.4172 18.534L26.0781 13.8268L21.7297 10.9176C21.3626 10.672 21.209 10.2366 21.3492 9.8391C21.4894 9.44168 21.8916 9.17255 22.3454 9.17255H27.7202L29.3812 4.46537C29.5215 4.06795 29.9237 3.79883 30.3775 3.79883C30.8313 3.79883 31.2335 4.06795 31.3738 4.46537L33.0346 9.17255H38.4095C38.8633 9.17255 39.2655 9.44168 39.4058 9.8391C39.5461 10.2366 39.3924 10.6719 39.0252 10.9176L34.6769 13.8268L36.3377 18.534C36.478 18.9315 36.3243 19.3668 35.9572 19.6125C35.7739 19.7353 35.5577 19.7967 35.3417 19.7967ZM30.3776 14.5464C30.5937 14.5464 30.8097 14.6078 30.9933 14.7306L33.3492 16.3068L32.4493 13.7566C32.309 13.359 32.4627 12.9237 32.8298 12.678L35.1856 11.102H32.2736C31.8198 11.102 31.4176 10.8328 31.2773 10.4354L30.3775 7.88509L29.4776 10.4354C29.3373 10.8328 28.9351 11.102 28.4813 11.102H25.5694L27.9251 12.678C28.2923 12.9236 28.446 13.359 28.3057 13.7566L27.4058 16.3068L29.7616 14.7306C29.9455 14.6078 30.1616 14.5464 30.3776 14.5464Z" fill="#F2B84B" fill-opacity="0.7"/>
<path d="M33.5203 29.9033H15.7126C15.134 29.9033 14.665 29.4714 14.665 28.9387C14.665 28.4061 15.134 27.9741 15.7126 27.9741H33.5203C34.0987 27.9741 34.5678 28.4061 34.5678 28.9387C34.5678 29.4714 34.0988 29.9033 33.5203 29.9033Z" fill="#F2B84B" fill-opacity="0.7"/>
<path d="M41.9005 36.6548H30.3778C29.7994 36.6548 29.3303 36.2228 29.3303 35.6902C29.3303 35.1575 29.7994 34.7256 30.3778 34.7256H41.9005C42.4789 34.7256 42.948 35.1575 42.948 35.6902C42.948 36.2228 42.479 36.6548 41.9005 36.6548Z" fill="#F2B84B" fill-opacity="0.7"/>
<path d="M11.5226 24.1152H6.28506C5.70652 24.1152 5.23755 23.6833 5.23755 23.1506C5.23755 22.618 5.70652 22.186 6.28506 22.186H11.5226C12.1012 22.186 12.5702 22.618 12.5702 23.1506C12.5702 23.6833 12.1012 24.1152 11.5226 24.1152Z" fill="#F2B84B" fill-opacity="0.7"/>
<path d="M39.8056 44.3721H1.04751C0.468972 44.3721 0 43.9401 0 43.4075C0 42.8748 0.468972 42.4429 1.04751 42.4429H39.8056C40.384 42.4429 40.8531 42.8748 40.8531 43.4075C40.8531 43.9401 40.3841 44.3721 39.8056 44.3721Z" fill="#F2B84B" fill-opacity="0.7"/>
<path d="M17.8077 6.75247C16.6525 6.75247 15.7126 5.88702 15.7126 4.82326C15.7126 3.75949 16.6525 2.89404 17.8077 2.89404C18.9629 2.89404 19.9027 3.75949 19.9027 4.82326C19.9027 5.88702 18.9629 6.75247 17.8077 6.75247Z" fill="#F2B84B" fill-opacity="0.7"/>
<path d="M42.9487 24.1153C41.2159 24.1153 39.8062 22.8171 39.8062 21.2215C39.8062 19.6258 41.2159 18.3276 42.9487 18.3276C44.6815 18.3276 46.0912 19.6258 46.0912 21.2215C46.0912 22.8171 44.6815 24.1153 42.9487 24.1153ZM42.9487 20.2568C42.3711 20.2568 41.9012 20.6896 41.9012 21.2215C41.9012 21.7533 42.3711 22.1861 42.9487 22.1861C43.5263 22.1861 43.9962 21.7533 43.9962 21.2215C43.9962 20.6896 43.5263 20.2568 42.9487 20.2568Z" fill="#F2B84B" fill-opacity="0.7"/>
<path d="M42.9484 7.71685C40.638 7.71685 38.7583 5.98596 38.7583 3.85843C38.7583 1.73089 40.638 0 42.9484 0C45.2588 0 47.1384 1.73089 47.1384 3.85843C47.1384 5.98596 45.2588 7.71685 42.9484 7.71685ZM42.9484 1.92921C41.7932 1.92921 40.8533 2.79466 40.8533 3.85843C40.8533 4.92219 41.7932 5.78764 42.9484 5.78764C44.1036 5.78764 45.0434 4.92219 45.0434 3.85843C45.0434 2.79466 44.1037 1.92921 42.9484 1.92921Z" fill="#F2B84B" fill-opacity="0.7"/>
</svg>
