<svg width="43" height="43" viewBox="0 0 43 43" fill="none" xmlns="http://www.w3.org/2000/svg">
<path d="M42.2468 42.0162C42.3567 42.0139 42.4645 41.9831 42.5615 41.9262C42.6585 41.8693 42.7419 41.788 42.805 41.6888C42.868 41.5897 42.9088 41.4755 42.9242 41.3557C42.9395 41.2358 42.9289 41.1137 42.8932 40.9992L39.6612 31.8464C39.6127 31.6997 39.525 31.5725 39.4096 31.4818C39.2942 31.391 39.1566 31.3409 39.0148 31.3379H29.5589C29.5173 30.9922 29.4711 30.6362 29.4019 30.2701C29.3326 29.904 29.0879 29.2226 28.1229 28.4243C28.4633 27.7683 28.5734 26.9976 28.4323 26.2581C28.1968 25.1751 27.3565 24.3208 25.9436 23.7157L21.2157 21.4173C21.2157 21.4173 18.6439 12.9358 18.3807 12.1425C18.4983 12.1642 18.6171 12.1761 18.7363 12.1781C21.2249 12.1781 22.1391 8.5526 22.1576 6.07627C22.2407 5.43049 22.6932 1.31682 20.4908 0.518496C18.8131 -0.172832 16.965 -0.172832 15.2872 0.518496C13.0387 1.33716 13.5558 5.60337 13.6251 6.11186C13.7358 7.34078 14.1671 8.50812 14.8671 9.47297C14.2303 9.58095 13.6223 9.83941 13.0849 10.2306C11.3119 11.512 10.273 14.1358 9.98674 18.0257C9.7605 21.1326 9.55273 25.2971 9.44192 29.1616C9.41532 29.9227 9.58329 30.6768 9.92672 31.3379H4.43692C4.30317 31.3386 4.17243 31.3816 4.06027 31.4619C3.94811 31.5421 3.85928 31.6562 3.80437 31.7905L0.0598548 40.9433C0.0129214 41.0594 -0.00691961 41.1866 0.00213495 41.3133C0.0111895 41.44 0.0488526 41.5622 0.111701 41.6688C0.17455 41.7754 0.260592 41.863 0.362007 41.9237C0.463422 41.9844 0.576995 42.0162 0.692405 42.0162H42.2468ZM26.0868 25.4649C26.3133 25.5721 26.5184 25.7274 26.6903 25.922C26.8622 26.1165 26.9976 26.3466 27.0887 26.5988C27.1492 26.9586 27.0902 27.3304 26.9225 27.6463L25.625 27.0514L26.0868 25.4649ZM18.7363 10.6527C17.4342 10.6527 15.5735 8.54752 15.1118 6.76781H20.7401C20.5923 8.54752 19.9459 10.6527 18.7363 10.6527ZM15.7212 1.9626C16.3948 1.68305 17.107 1.5334 17.8267 1.52022H17.9421C18.6648 1.53294 19.3801 1.68259 20.0568 1.9626C20.8047 2.2321 20.9109 4.02198 20.8417 5.24235H14.9363C14.8625 4.02198 14.9687 2.2321 15.7212 1.9626ZM11.3673 18.1529C11.7136 13.9527 12.9048 10.7238 15.929 10.9679C17.1664 10.9679 20.0152 22.2411 20.0152 22.2411C19.8998 22.6987 24.5677 24.6208 24.8124 24.8395L24.2999 26.5988L19.1149 25.3886L15.652 19.4495C15.5483 19.291 15.3934 19.1824 15.2192 19.146C15.045 19.1095 14.8647 19.1481 14.7155 19.2537C14.5664 19.3593 14.4597 19.5239 14.4174 19.7136C14.3752 19.9033 14.4006 20.1036 14.4885 20.2732C14.6455 20.4055 18.2884 27.1836 18.5469 26.8124C20.8555 27.5446 26.7978 28.0023 28.0444 30.5701C28.5062 34.0685 28.4369 36.4482 25.9159 35.9652C23.1041 35.7567 16.1183 35.9143 13.8467 35.9652V33.2854C17.148 32.777 22.0975 32.1617 22.9748 32.3447C23.149 32.3677 23.3246 32.3171 23.4661 32.203C23.6077 32.0889 23.7047 31.9199 23.7375 31.7301C23.7703 31.5404 23.7365 31.344 23.643 31.1805C23.5494 31.0171 23.403 30.8989 23.2334 30.8498C8.77704 31.6176 10.5039 34.9635 11.3673 18.1529ZM10.213 33.3516H12.4615V34.877C12.1476 34.877 11.7505 34.877 11.2518 34.877C10.2725 34.9404 9.32174 35.265 8.48155 35.8228C7.64584 36.2957 7.34111 36.4177 7.17028 36.2296C7.12872 36.1889 7.12872 36.1787 7.13334 36.1482C7.22106 35.5177 8.76781 34.2262 10.213 33.3516ZM4.88478 32.8431H8.25992C7.16566 33.6465 5.91903 34.7855 5.76666 35.894C5.72976 36.146 5.74915 36.4041 5.82317 36.6459C5.89718 36.8878 6.02358 37.1062 6.19144 37.2822C6.3381 37.448 6.51425 37.5788 6.70889 37.6663C6.90353 37.7538 7.11247 37.7961 7.32264 37.7906C7.95769 37.7233 8.57039 37.4972 9.1141 37.1296C9.7604 36.6868 10.4932 36.4201 11.2518 36.3516C11.8382 36.3516 12.2168 36.3516 12.4615 36.3821C12.4217 36.5075 12.4092 36.6413 12.4249 36.7729C12.4405 36.9045 12.484 37.0303 12.5518 37.1401C12.6196 37.2498 12.7098 37.3406 12.8152 37.405C12.9206 37.4694 13.0383 37.5057 13.1587 37.511C14.2668 37.3635 25.0387 37.4398 27.5596 37.4652C28.9448 36.9161 29.6697 35.2584 29.6512 32.8634H38.5531L41.2264 40.4907H1.76359L4.88478 32.8431Z" fill="#8492A3" fill-opacity="0.5"/>
</svg>
